<?xml version="1.0" encoding="UTF-8"?><svg id="Layer_1" xmlns="http://www.w3.org/2000/svg" viewBox="0 0 500 500"><defs><style>.cls-1{fill:#fff;stroke-width:0px;}</style></defs><path class="cls-1" d="M265.57,499.5h-31.18c-1.41-.29-2.8-.65-4.22-.85-10.27-1.44-20.67-2.27-30.81-4.37C72.98,468.09-12.98,349.02,2.34,221.08,10.49,153.02,41.73,97.27,95.25,54.76,152.4,9.36,217.89-7.22,289.9,3.78c47.68,7.28,89.66,27.67,125.6,59.88,43.03,38.56,69.95,86.34,80.09,143.35,1.61,9.08,2.57,18.27,3.83,27.41v31.19c-.28,1.25-.71,2.49-.81,3.76-2.93,38.49-13.98,74.53-34.07,107.45-39.59,64.88-96.78,104.76-171.62,118.87-9.04,1.7-18.23,2.57-27.36,3.82ZM102.04,340.4h6.24c29.06,0,58.12.09,87.18-.08,5.8-.03,11.72-.55,17.38-1.77,21.36-4.61,36.68-16.1,41.53-38.52,2.26-10.43,2.1-20.96-.43-31.39-3.58-14.73-11.4-25.32-27.36-27.93-.18-.03-.3-.5-.43-.77,11.57-5.25,16.26-9.24,19.81-16.84,8.34-17.86,1.88-44.11-13.85-56.02-10.29-7.79-22.22-10.38-34.79-10.42-30.2-.1-60.4-.04-90.59-.02-1.54,0-3.08.14-4.68.21v183.55ZM398.66,283.22c-.9-10.54-.91-20.47-2.75-30.05-4.61-24.04-17.53-41.45-42.4-47.32-7.79-1.84-16.08-2.49-24.1-2.26-29.34.85-50.69,15.86-60.44,41.75-4.94,13.11-6.83,26.6-5.37,40.62,2.89,27.69,19.65,48.26,45.57,55.17,13.01,3.47,26.31,3.97,39.6,2.15,11.52-1.58,22.52-4.91,31.8-12.37,11.17-8.99,15.82-20.89,15.7-35.33h-31.73c-3.93,15.67-17.96,22.49-38.27,18.75-15.3-2.82-25.17-15.82-23.28-31.11h95.66ZM369.67,167.75h-75.27v22.07h75.27v-22.07Z"/><path class="cls-1" d="M144.3,258.77c18.5,0,36.65-.33,54.78.15,7.82.21,13.51,5.25,15.55,12.69,1.55,5.64,2.27,11.88,1.64,17.67-1.3,12.02-8.47,18.08-20.61,18.24-17,.22-34.01.06-51.36.06v-48.82Z"/><path class="cls-1" d="M144.38,189.42c18.13,0,35.5-.1,52.86.05,6.35.05,11.51,4.79,12.42,12.19.68,5.55.55,11.39-.42,16.89-1.42,8.12-5.52,11.52-13.8,11.66-16.87.29-33.75.09-51.07.09v-40.88Z"/><path class="cls-1" d="M302.59,258.32c1.6-17.57,16.72-29.21,35.57-27.81,14.12,1.05,24.41,12.98,23.68,27.81h-59.25Z"/></svg>