<?xml version="1.0" encoding="UTF-8"?><svg id="Layer_1" xmlns="http://www.w3.org/2000/svg" viewBox="0 0 500 500"><defs><style>.cls-1{fill:#fff;stroke-width:0px;}</style></defs><path class="cls-1" d="M.5,236.92c1.25-9.02,2.18-18.1,3.8-27.05,12.02-66.6,45.22-119.72,98.54-159.35C151.3,14.5,206-1.08,265.62,2.5c116.68,7.02,211.14,95.23,230.3,207.86,18.64,109.51-36.98,219.96-135.16,267.23-9.52,4.58-19.46,8.25-29.22,12.32-1.05.44-2.13.82-3.23,1.1-10.2,2.65-17.06-2.68-17.05-13.44,0-21.96.13-43.92.16-65.89,0-3.49-.07-7-.43-10.46-1.44-13.85-5.54-26.58-15.42-36.62,12.03-2.6,24-4.56,35.62-7.81,45.02-12.57,71.71-45.12,75.69-92.78,1.12-13.34,1.24-26.94.05-40.25-1.62-18.18-9.71-33.97-21.25-47.82-1.85-2.22-2.52-3.96-1.6-7.03,6.08-20.16,4.18-40.03-2.51-59.71-1.44-4.25-4.72-4.05-7.43-3.47-9.32,1.99-18.94,3.48-27.65,7.16-10.73,4.53-20.58,11.19-30.97,16.62-2.19,1.14-5.25,1.82-7.56,1.24-38.93-9.75-77.78-9.69-116.7.04-2.29.57-5.47-.1-7.52-1.38-15.55-9.77-31.36-18.83-49.48-22.68-14.44-3.07-16.13-2.04-19.69,12.39-4.22,17.12-4.66,34.16.93,51.13.4,1.23.05,3.33-.77,4.27-21.34,24.58-26.26,53.67-22.96,85.24,2.09,19.93,6.73,38.94,17.58,55.89,14.5,22.65,35.86,35.16,60.75,41.91,10.89,2.95,22.07,4.73,33.52,7.12-8.22,8.58-12.54,19.1-14.66,30.75-.23,1.27-1.74,2.8-3,3.31-26.44,10.7-52.96,6.81-69.77-21.51-8.27-13.93-19.81-23.74-36.22-25.93-2.98-.4-6.18-.07-9.13.58-4.75,1.06-5.59,4.15-2.23,7.94,1.84,2.07,3.96,4.03,6.3,5.45,12.98,7.93,21.91,19.59,27.02,33.71,11.67,32.26,40.62,42.99,69.72,40.1,5.16-.51,10.28-1.37,15.78-2.11.13,1.21.37,2.45.38,3.7.14,11.98.29,23.96.36,35.94.07,12.33-7.55,18.25-18.87,14.03C83.79,458.82,28.8,398.36,6.57,307.62c-2.79-11.38-3.53-23.28-5.24-34.94-.24-1.61-.55-3.2-.83-4.8,0-10.32,0-20.63,0-30.95Z"/></svg>