<?xml version="1.0" encoding="UTF-8"?><svg id="Layer_1" xmlns="http://www.w3.org/2000/svg" viewBox="0 0 500 500"><defs><style>.cls-1{fill:#fff;stroke-width:0px;}</style></defs><path class="cls-1" d="M235.35.46c10.07,0,20.14,0,30.22,0,1.25.27,2.49.7,3.75.8,37.49,2.82,72.72,13.3,105.01,32.5,66.36,39.47,107.05,97.2,121.35,173.23,1.7,9.05,2.57,18.27,3.83,27.4v30.22c-.28,1.56-.59,3.12-.83,4.69-2.03,12.97-3.16,26.15-6.2,38.88-35.75,149.56-197,231.23-338.95,171.88C46.24,435.22-15.69,322.04,4.19,207.18,21.69,106.15,99.95,25.53,200.24,5.53c11.58-2.31,23.4-3.41,35.11-5.07ZM263.08,227.81c0-2.95,0-4.54,0-6.13,0-1.79.05-3.57-.03-5.36-.26-5.91-2.86-8.69-8.74-8.75-11.69-.13-23.38-.12-35.07,0-6.15.06-9.07,2.9-9.07,8.96-.05,49.69-.05,99.37,0,149.06,0,6.32,2.97,9.11,9.37,9.15,10.88.06,21.76.03,32.64.01,8.31,0,10.61-2.33,10.62-10.74.01-25.01-.08-50.01.05-75.02.05-9.22,2.1-18.05,7-25.99,6.4-10.37,16.08-13.59,27.66-12.04,10.54,1.41,17.21,7.85,19.62,17.77,1.85,7.63,2.7,15.67,2.81,23.54.33,24.35.08,48.71.11,73.07,0,6.74,2.7,9.37,9.49,9.4,11.37.04,22.73.03,34.1,0,7.8-.01,10.29-2.42,10.3-10.07.02-27.12.27-54.24-.15-81.35-.16-10.49-1.09-21.12-3.08-31.41-4.24-21.89-15.34-39.15-38.36-44.33-25.75-5.79-50.25-4-69.25,20.22ZM133.82,290.95c0,24.51-.02,49.02.01,73.52.01,7.38,2.94,10.25,10.36,10.27,10.39.04,20.77.02,31.16,0,8.29-.01,11.16-2.83,11.16-11.08.02-48.37.02-96.73,0-145.1,0-8.04-2.86-10.98-10.74-11.03-10.39-.06-20.77-.06-31.16,0-8.09.04-10.78,2.76-10.79,10.86-.02,24.18,0,48.37,0,72.55ZM126.08,159.1c-.06,18.88,15.07,34.25,33.79,34.31,18.73.06,34.13-15.14,34.34-33.91.21-18.58-15.25-34.19-33.94-34.27-18.85-.08-34.13,15.06-34.19,33.87Z"/></svg>