<?xml version="1.0" encoding="UTF-8"?><svg id="Layer_1" xmlns="http://www.w3.org/2000/svg" viewBox="0 0 500 500"><defs><style>.cls-1{fill:#fff;stroke-width:0px;}</style></defs><path class="cls-1" d="M265.65,499.5h-31.19c-1.07-.28-2.13-.72-3.22-.8-21.15-1.5-41.85-5.39-61.72-12.75C78.89,452.38,23.91,388.09,4.49,293.48c-1.88-9.17-2.66-18.56-3.95-27.85,0-10.39,0-20.79,0-31.18.29-1.42.65-2.82.86-4.25,1.67-11.22,2.63-22.59,5.07-33.64C36.79,59.26,173.36-26,310.12,7.96c129.99,32.28,210.12,159.21,184.61,290.64-19.5,100.48-100.76,179.91-201.71,197.07-9.08,1.54-18.25,2.56-27.37,3.83ZM262.44,289.08c-1.99-4.8-3.76-8.07-4.72-11.56-6.57-24.07-12.89-48.2-19.44-72.27-3.06-11.24-6.05-22.53-9.83-33.54-2.96-8.61-9.73-12.83-18.94-13.64-8.71-.77-15.86,2.89-22.8,7.08-22.62,13.66-42.31,31.14-62.14,48.39-3.18,2.77-3.32,6.16-.94,9.58,1.2,1.73,2.56,3.35,3.9,4.98,3.78,4.64,6.55,4.98,11.68,1.59,4.6-3.04,9.11-6.25,13.93-8.91,9.56-5.27,14.36-3.91,19.05,6.06,3.43,7.3,6.29,14.95,8.57,22.68,7.73,26.27,14.68,52.84,26.36,77.71,4.86,10.34,11.03,20.15,17.49,29.6,4.73,6.92,11.92,9.23,20.62,7.53,13.2-2.58,24.42-8.96,34.22-17.59,35.05-30.83,62.29-67.7,82.91-109.47,7.54-15.28,10.76-31.44,8.59-48.63-2.29-18.19-12.1-30.33-27.96-33-11.92-2.01-23.67-.91-34.91,3.63-20.96,8.46-31.87,25.71-39.25,45.81-1.51,4.11,1.79,6.91,6.34,6.54,5.75-.47,11.63-1.14,17.29-.42,6.19.79,9.38,5.35,8.56,11.53-.58,4.4-1.7,9.09-3.92,12.86-9.04,15.36-18.55,30.44-28.01,45.55-1.51,2.41-3.68,4.41-6.65,7.9Z"/></svg>